<?xml version="1.0" encoding="UTF-8"?>
<!-- Generator: Adobe Illustrator 16.0.0, SVG Export Plug-In . SVG Version: 6.00 Build 0)  -->
<!DOCTYPE svg PUBLIC "-//W3C//DTD SVG 1.1//EN" "http://www.w3.org/Graphics/SVG/1.1/DTD/svg11.dtd">
<svg version="1.1" id="Layer_1" xmlns="http://www.w3.org/2000/svg" xmlns:xlink="http://www.w3.org/1999/xlink" x="0px" y="0px" width="202.656px" height="176.207px" viewBox="0 0 202.656 176.207" enable-background="new 0 0 202.656 176.207" xml:space="preserve">
<g id="Layer_1_1_">
</g>
<g id="Layer_4">
</g>
<g id="Layer_3">
	<g>
		
			<path opacity="0.1" fill="none" stroke="#FFFFFF" stroke-width="5" stroke-linecap="round" stroke-linejoin="round" stroke-miterlimit="10" enable-background="new    " d="    M61.964,120.785L2.5,140.665 M200.156,140.665l-73.058-24.424"/>
		<g>
			
				<path opacity="0.4" fill="none" stroke="#FFFFFF" stroke-width="5" stroke-linecap="round" stroke-linejoin="round" stroke-miterlimit="10" enable-background="new    " d="     M101.327,53.951V2.5"/>
		</g>
		<g>
			<g>
				<path fill="#D8D8D0" d="M101.327,78.734l47.012,11.681c8.183-3.212,13.096-7.274,13.096-11.681c0-4.001,0-14.777,0-18.782      c0-10.351-26.912-18.758-60.107-18.758c-33.201,0-60.107,8.407-60.107,18.758c0,4.005,0,14.781,0,18.782      c0,10.351,26.906,18.745,60.107,18.745L101.327,78.734L101.327,78.734z"/>
				<g>
					<path fill="#D8D8D0" d="M148.339,109.176L101.327,97.48v18.77l47.012,11.68c8.183-3.207,13.096-7.253,13.096-11.68       c0-3.98,0-14.781,0-18.77C161.435,101.911,156.521,105.964,148.339,109.176z"/>
					<path fill="#D8D8D0" d="M41.22,97.479c0,3.989,0,14.791,0,18.771c0,10.358,26.906,18.754,60.107,18.754V116.25       C68.126,116.25,41.22,107.834,41.22,97.479z"/>
				</g>
			</g>
		</g>
		
			<line opacity="0.5" fill="none" stroke="#FFFFFF" stroke-width="5" stroke-linecap="round" stroke-linejoin="round" stroke-miterlimit="10" enable-background="new    " x1="200.156" y1="140.665" x2="200.156" y2="35.538"/>
		
			<line opacity="0.3" fill="none" stroke="#FFFFFF" stroke-width="5" stroke-linecap="round" stroke-linejoin="round" stroke-miterlimit="10" enable-background="new    " x1="101.327" y1="173.707" x2="200.156" y2="140.665"/>
		
			<line opacity="0.1" fill="none" stroke="#FFFFFF" stroke-width="5" stroke-linecap="round" stroke-linejoin="round" stroke-miterlimit="10" enable-background="new    " x1="2.5" y1="140.665" x2="101.327" y2="173.707"/>
		
			<line opacity="0.3" fill="none" stroke="#FFFFFF" stroke-width="5" stroke-linecap="round" stroke-linejoin="round" stroke-miterlimit="10" enable-background="new    " x1="2.5" y1="35.538" x2="2.5" y2="140.665"/>
		
			<line opacity="0.1" fill="none" stroke="#FFFFFF" stroke-width="5" stroke-linecap="round" stroke-linejoin="round" stroke-miterlimit="10" enable-background="new    " x1="101.327" y1="2.5" x2="2.5" y2="35.538"/>
		
			<line opacity="0.3" fill="none" stroke="#FFFFFF" stroke-width="5" stroke-linecap="round" stroke-linejoin="round" stroke-miterlimit="10" enable-background="new    " x1="200.156" y1="35.538" x2="101.327" y2="2.5"/>
		<g opacity="0.4">
			<path fill="none" stroke="#FFFFFF" stroke-width="5" stroke-linecap="round" stroke-linejoin="round" stroke-miterlimit="10" d="     M101.327,172.991V68.58"/>
		</g>
		<g opacity="0.6">
			
				<path opacity="0.5" fill="none" stroke="#FFFFFF" stroke-width="5" stroke-linecap="round" stroke-linejoin="round" stroke-miterlimit="10" enable-background="new    " d="     M101.327,68.58l98.829-33.042 M2.5,35.538l98.827,33.042"/>
		</g>
	</g>
</g>
<g id="Layer_2" display="none">
</g>
</svg>