<?xml version="1.0" encoding="iso-8859-1"?>
<!-- Generator: Adobe Illustrator 19.1.0, SVG Export Plug-In . SVG Version: 6.00 Build 0)  -->
<svg version="1.1" id="Capa_1" xmlns="http://www.w3.org/2000/svg" xmlns:xlink="http://www.w3.org/1999/xlink" x="0px" y="0px"
	 viewBox="0 0 65.199 65.199" style="enable-background:new 0 0 65.199 65.199;" xml:space="preserve">
<g>
	<g id="group-7svg">
		<path id="path-1_7_" style="fill:#FF917B;" d="M60.868,39.654c0,14.108-11.425,25.545-25.518,25.545
			c-14.094,0-25.518-11.437-25.518-25.545s11.424-25.545,25.518-25.545C49.443,14.109,60.868,25.546,60.868,39.654z"/>
		<path id="path-2_7_" style="fill:#53ECF4;" d="M49.777,39.654c0,7.976-6.46,14.442-14.427,14.442
			c-7.968,0-14.427-6.466-14.427-14.442s6.459-14.442,14.427-14.442C43.317,25.212,49.777,31.678,49.777,39.654z"/>
		<path id="path-3_7_" style="fill:#EDC951;" d="M28.879,5.005h11v9.009h-11V5.005z"/>
		<path id="path-4_7_" d="M31.349,63.697c-14.898,0-27.018-12.133-27.018-27.046c0-14.914,12.12-27.046,27.018-27.046
			s27.018,12.132,27.018,27.046C58.368,51.564,46.248,63.697,31.349,63.697z M31.349,12.608c-13.244,0-24.018,10.785-24.018,24.043
			c0,13.257,10.774,24.043,24.018,24.043c13.243,0,24.018-10.786,24.018-24.043C55.368,23.393,44.593,12.608,31.349,12.608z"/>
		<path id="path-5_6_" d="M31.349,52.595c-8.782,0-15.927-7.152-15.927-15.944c0-8.791,7.145-15.944,15.927-15.944
			s15.927,7.153,15.927,15.944C47.277,45.443,40.132,52.595,31.349,52.595z M31.349,23.71c-7.128,0-12.927,5.806-12.927,12.941
			c0,7.136,5.799,12.941,12.927,12.941s12.927-5.805,12.927-12.941C44.277,29.516,38.478,23.71,31.349,23.71z"/>
		<path id="path-6_6_" d="M36.38,12.012h-11c-0.828,0-1.5-0.672-1.5-1.501v-9.01c0-0.829,0.672-1.501,1.5-1.501h11
			c0.829,0,1.5,0.672,1.5,1.501v9.01C37.88,11.34,37.208,12.012,36.38,12.012z M26.879,9.009h8V3.003h-8V9.009z"/>
		<path id="path-7_5_" d="M37.934,42.882c-0.244,0-0.493-0.059-0.722-0.185l-7.555-4.164c-0.479-0.264-0.777-0.768-0.777-1.316
			v-7.186c0-0.829,0.672-1.501,1.5-1.501c0.829,0,1.5,0.672,1.5,1.501v6.299l6.779,3.735c0.726,0.401,0.99,1.314,0.591,2.04
			C38.977,42.602,38.463,42.882,37.934,42.882z"/>
	</g>
</g>
<g>
</g>
<g>
</g>
<g>
</g>
<g>
</g>
<g>
</g>
<g>
</g>
<g>
</g>
<g>
</g>
<g>
</g>
<g>
</g>
<g>
</g>
<g>
</g>
<g>
</g>
<g>
</g>
<g>
</g>
</svg>
