<?xml version="1.0" ?><!DOCTYPE svg  PUBLIC '-//W3C//DTD SVG 1.1//EN'  'http://www.w3.org/Graphics/SVG/1.1/DTD/svg11.dtd'><svg enable-background="new 0 0 128 128" id="Слой_1" version="1.1" viewBox="0 0 128 128" xml:space="preserve" xmlns="http://www.w3.org/2000/svg" xmlns:xlink="http://www.w3.org/1999/xlink"><g><g><circle cx="64" cy="115" fill="#3EBBC4" r="3"/><path d="M64,126c6.1,0,11-4.9,11-11V70.6c0-6.7,2.6-16.9,6.4-20.8l2.1-2.2C88.3,42.6,91,36,91,29v-2h-0.1    c-0.7-8.8-5.7-16.9-13.4-21.4L77,5.4h-3.5V27h-14V5.4H56l-0.5,0.3C47.8,10.1,42.7,18.2,42.1,27H37v2c0,7,2.7,13.6,7.5,18.6    l2.1,2.2c3.8,3.9,6.4,14.1,6.4,20.8V115C53,121.1,57.9,126,64,126z M77.5,10.4c5.4,3.9,8.8,10,9.4,16.6h-9.4V10.4z M55.5,10.4V27    h-9.4C46.7,20.4,50.1,14.3,55.5,10.4z M49.5,47.1l-2.1-2.2c-3.6-3.8-5.8-8.6-6.3-13.8h45.8c-0.5,5.2-2.6,10-6.3,13.8l-2.1,2.2    C73.4,52.4,71,64.3,71,70.6V115c0,3.9-3.1,7-7,7s-7-3.1-7-7V70.6C57,64.3,54.6,52.4,49.5,47.1z" fill="#3EBBC4"/><rect fill="#3EBBC4" height="10" width="4" x="55.8" y="35"/><rect fill="#3EBBC4" height="10" width="4" x="61.8" y="35"/><rect fill="#3EBBC4" height="10" width="4" x="68.2" y="35"/></g></g></svg>