<svg id="eW4lnNC3Oj21" xmlns="http://www.w3.org/2000/svg" xmlns:xlink="http://www.w3.org/1999/xlink" viewBox="0 0 522.09 495.89" shape-rendering="geometricPrecision" text-rendering="geometricPrecision" style="background-color:transparent"><style><![CDATA[#eW4lnNC3Oj26 {animation-name: eW4lnNC3Oj26_f_o, eW4lnNC3Oj26_s_w, eW4lnNC3Oj26_s_do;animation-duration: 5000ms;animation-fill-mode: forwards;animation-timing-function: linear;animation-direction: normal;animation-iteration-count: 1;}@keyframes eW4lnNC3Oj26_f_o { 0% {fill-opacity: 0} 78% {fill-opacity: 0;animation-timing-function: cubic-bezier(0.95,0.05,0.795,0.035)} 80% {fill-opacity: 1} 100% {fill-opacity: 1}}@keyframes eW4lnNC3Oj26_s_w { 0% {stroke-width: 5} 60% {stroke-width: 5;animation-timing-function: cubic-bezier(0.86,0,0.07,1)} 80% {stroke-width: 175} 100% {stroke-width: 175}}@keyframes eW4lnNC3Oj26_s_do { 0% {stroke-dashoffset: 1602.29} 60% {stroke-dashoffset: 1602.29;animation-timing-function: cubic-bezier(0.42,0,0.58,1)} 80% {stroke-dashoffset: 0} 100% {stroke-dashoffset: 0}} #eW4lnNC3Oj27 {animation-name: eW4lnNC3Oj27_f_o, eW4lnNC3Oj27_s_w, eW4lnNC3Oj27_s_do;animation-duration: 5000ms;animation-fill-mode: forwards;animation-timing-function: linear;animation-direction: normal;animation-iteration-count: 1;}@keyframes eW4lnNC3Oj27_f_o { 0% {fill-opacity: 0} 78% {fill-opacity: 0;animation-timing-function: cubic-bezier(0.95,0.05,0.795,0.035)} 80% {fill-opacity: 1} 100% {fill-opacity: 1}}@keyframes eW4lnNC3Oj27_s_w { 0% {stroke-width: 5} 60% {stroke-width: 5;animation-timing-function: cubic-bezier(0.86,0,0.07,1)} 80% {stroke-width: 100} 100% {stroke-width: 100}}@keyframes eW4lnNC3Oj27_s_do { 0% {stroke-dashoffset: 285.39} 70% {stroke-dashoffset: 285.39;animation-timing-function: cubic-bezier(0.42,0,0.58,1)} 80% {stroke-dashoffset: 0} 100% {stroke-dashoffset: 0}} #eW4lnNC3Oj214 {animation: eW4lnNC3Oj214_s_do 5000ms linear 1 normal forwards}@keyframes eW4lnNC3Oj214_s_do { 0% {stroke-dashoffset: 399.11} 18% {stroke-dashoffset: 399.11;animation-timing-function: cubic-bezier(0.445,0.05,0.55,0.95)} 28% {stroke-dashoffset: 0;animation-timing-function: cubic-bezier(0.645,0.045,0.355,1)} 90% {stroke-dashoffset: 0;animation-timing-function: cubic-bezier(0.23,1,0.32,1)} 100% {stroke-dashoffset: 399.11}} #eW4lnNC3Oj215 {animation: eW4lnNC3Oj215_s_do 5000ms linear 1 normal forwards}@keyframes eW4lnNC3Oj215_s_do { 0% {stroke-dashoffset: 390.76} 12% {stroke-dashoffset: 390.76;animation-timing-function: cubic-bezier(0.445,0.05,0.55,0.95)} 22% {stroke-dashoffset: 0;animation-timing-function: cubic-bezier(0.645,0.045,0.355,1)} 90% {stroke-dashoffset: 0;animation-timing-function: cubic-bezier(0.23,1,0.32,1)} 100% {stroke-dashoffset: 390.76}} #eW4lnNC3Oj216 {animation: eW4lnNC3Oj216_s_do 5000ms linear 1 normal forwards}@keyframes eW4lnNC3Oj216_s_do { 0% {stroke-dashoffset: 399.11} 8% {stroke-dashoffset: 399.11;animation-timing-function: cubic-bezier(0.445,0.05,0.55,0.95)} 18% {stroke-dashoffset: 0;animation-timing-function: cubic-bezier(0.645,0.045,0.355,1)} 90% {stroke-dashoffset: 0;animation-timing-function: cubic-bezier(0.23,1,0.32,1)} 100% {stroke-dashoffset: 399.11}} #eW4lnNC3Oj217 {animation: eW4lnNC3Oj217_s_do 5000ms linear 1 normal forwards}@keyframes eW4lnNC3Oj217_s_do { 0% {stroke-dashoffset: 390.76;animation-timing-function: cubic-bezier(0.445,0.05,0.55,0.95)} 10% {stroke-dashoffset: 0;animation-timing-function: cubic-bezier(0.645,0.045,0.355,1)} 90% {stroke-dashoffset: 0;animation-timing-function: cubic-bezier(0.23,1,0.32,1)} 100% {stroke-dashoffset: 390.76}} #eW4lnNC3Oj218 {animation: eW4lnNC3Oj218_s_do 5000ms linear 1 normal forwards}@keyframes eW4lnNC3Oj218_s_do { 0% {stroke-dashoffset: 391.57} 16% {stroke-dashoffset: 391.57;animation-timing-function: cubic-bezier(0.445,0.05,0.55,0.95)} 26% {stroke-dashoffset: 0;animation-timing-function: cubic-bezier(0.645,0.045,0.355,1)} 90% {stroke-dashoffset: 0;animation-timing-function: cubic-bezier(0.23,1,0.32,1)} 100% {stroke-dashoffset: 391.57}} #eW4lnNC3Oj219 {animation: eW4lnNC3Oj219_s_do 5000ms linear 1 normal forwards}@keyframes eW4lnNC3Oj219_s_do { 0% {stroke-dashoffset: 207.24} 20% {stroke-dashoffset: 207.24;animation-timing-function: cubic-bezier(0.445,0.05,0.55,0.95)} 30% {stroke-dashoffset: 0;animation-timing-function: cubic-bezier(0.645,0.045,0.355,1)} 90% {stroke-dashoffset: 0;animation-timing-function: cubic-bezier(0.23,1,0.32,1)} 100% {stroke-dashoffset: 207.24}} #eW4lnNC3Oj220 {animation: eW4lnNC3Oj220_s_do 5000ms linear 1 normal forwards}@keyframes eW4lnNC3Oj220_s_do { 0% {stroke-dashoffset: 207.24} 24% {stroke-dashoffset: 207.24;animation-timing-function: cubic-bezier(0.445,0.05,0.55,0.95)} 34% {stroke-dashoffset: 0;animation-timing-function: cubic-bezier(0.645,0.045,0.355,1)} 90% {stroke-dashoffset: 0;animation-timing-function: cubic-bezier(0.23,1,0.32,1)} 100% {stroke-dashoffset: 207.24}} #eW4lnNC3Oj221 {animation: eW4lnNC3Oj221_s_do 5000ms linear 1 normal forwards}@keyframes eW4lnNC3Oj221_s_do { 0% {stroke-dashoffset: 98.08} 26% {stroke-dashoffset: 98.08;animation-timing-function: cubic-bezier(0.445,0.05,0.55,0.95)} 36% {stroke-dashoffset: 0;animation-timing-function: cubic-bezier(0.645,0.045,0.355,1)} 90% {stroke-dashoffset: 0;animation-timing-function: cubic-bezier(0.23,1,0.32,1)} 100% {stroke-dashoffset: 98.08}} #eW4lnNC3Oj222 {animation: eW4lnNC3Oj222_s_do 5000ms linear 1 normal forwards}@keyframes eW4lnNC3Oj222_s_do { 0% {stroke-dashoffset: 78.84} 30% {stroke-dashoffset: 78.84;animation-timing-function: cubic-bezier(0.445,0.05,0.55,0.95)} 40% {stroke-dashoffset: 0;animation-timing-function: cubic-bezier(0.645,0.045,0.355,1)} 90% {stroke-dashoffset: 0;animation-timing-function: cubic-bezier(0.23,1,0.32,1)} 100% {stroke-dashoffset: 78.84}} #eW4lnNC3Oj223 {animation: eW4lnNC3Oj223_s_do 5000ms linear 1 normal forwards}@keyframes eW4lnNC3Oj223_s_do { 0% {stroke-dashoffset: 89.48} 32% {stroke-dashoffset: 89.48;animation-timing-function: cubic-bezier(0.445,0.05,0.55,0.95)} 42% {stroke-dashoffset: 0;animation-timing-function: cubic-bezier(0.645,0.045,0.355,1)} 90% {stroke-dashoffset: 0;animation-timing-function: cubic-bezier(0.23,1,0.32,1)} 100% {stroke-dashoffset: 89.48}} #eW4lnNC3Oj224 {animation: eW4lnNC3Oj224_s_do 5000ms linear 1 normal forwards}@keyframes eW4lnNC3Oj224_s_do { 0% {stroke-dashoffset: 78.84} 36% {stroke-dashoffset: 78.84;animation-timing-function: cubic-bezier(0.445,0.05,0.55,0.95)} 46% {stroke-dashoffset: 0;animation-timing-function: cubic-bezier(0.645,0.045,0.355,1)} 90% {stroke-dashoffset: 0;animation-timing-function: cubic-bezier(0.23,1,0.32,1)} 100% {stroke-dashoffset: 78.84}} #eW4lnNC3Oj225 {animation: eW4lnNC3Oj225_s_do 5000ms linear 1 normal forwards}@keyframes eW4lnNC3Oj225_s_do { 0% {stroke-dashoffset: 285.39} 38% {stroke-dashoffset: 285.39;animation-timing-function: cubic-bezier(0.445,0.05,0.55,0.95)} 48% {stroke-dashoffset: 0;animation-timing-function: cubic-bezier(0.645,0.045,0.355,1)} 90% {stroke-dashoffset: 0;animation-timing-function: cubic-bezier(0.23,1,0.32,1)} 100% {stroke-dashoffset: 285.39}} #eW4lnNC3Oj226 {animation: eW4lnNC3Oj226_s_do 5000ms linear 1 normal forwards}@keyframes eW4lnNC3Oj226_s_do { 0% {stroke-dashoffset: 192.65} 40% {stroke-dashoffset: 192.65;animation-timing-function: cubic-bezier(0.445,0.05,0.55,0.95)} 50% {stroke-dashoffset: 0;animation-timing-function: cubic-bezier(0.645,0.045,0.355,1)} 90% {stroke-dashoffset: 0;animation-timing-function: cubic-bezier(0.23,1,0.32,1)} 100% {stroke-dashoffset: 192.65}} #eW4lnNC3Oj227 {animation: eW4lnNC3Oj227_s_do 5000ms linear 1 normal forwards}@keyframes eW4lnNC3Oj227_s_do { 0% {stroke-dashoffset: 192.65} 42% {stroke-dashoffset: 192.65;animation-timing-function: cubic-bezier(0.445,0.05,0.55,0.95)} 52% {stroke-dashoffset: 0;animation-timing-function: cubic-bezier(0.645,0.045,0.355,1)} 90% {stroke-dashoffset: 0;animation-timing-function: cubic-bezier(0.23,1,0.32,1)} 100% {stroke-dashoffset: 192.65}} #eW4lnNC3Oj228 {animation: eW4lnNC3Oj228_s_do 5000ms linear 1 normal forwards}@keyframes eW4lnNC3Oj228_s_do { 0% {stroke-dashoffset: 192.65} 44% {stroke-dashoffset: 192.65;animation-timing-function: cubic-bezier(0.445,0.05,0.55,0.95)} 54% {stroke-dashoffset: 0;animation-timing-function: cubic-bezier(0.645,0.045,0.355,1)} 90% {stroke-dashoffset: 0;animation-timing-function: cubic-bezier(0.23,1,0.32,1)} 100% {stroke-dashoffset: 192.65}}]]></style><g id="eW4lnNC3Oj22"><g id="eW4lnNC3Oj23"><g id="eW4lnNC3Oj24" mask="url(#eW4lnNC3Oj28)"><g id="eW4lnNC3Oj25" transform="matrix(1 0 0 1 0 0.000001)"><path id="eW4lnNC3Oj26" d="M464.35,219.9L288.52,54.42C273.28,40.1,249.22,40.1,233.52,54.42L123,158.65C152.223183,169.596874,174.478659,193.81716,182.92,223.86L332.22,223.86C335.884183,223.857304,339.398335,225.315127,341.984608,227.910785C344.570881,230.506442,346.015967,234.025851,346,237.69L346,260.41C346.015952,264.070683,344.573606,267.587051,341.991664,270.182129C339.409721,272.777207,335.900717,274.237376,332.24,274.24L315,274.24L315,306.35C315.018619,310.00976,313.578506,313.526159,310.998149,316.121529C308.417792,318.716899,304.909806,320.177388,301.25,320.18L263.46,320.18C259.800194,320.177388,256.292208,318.716899,253.711851,316.121529C251.131494,313.526159,249.691381,310.00976,249.71,306.35L249.71,274.24L183.41,274.24C175.06,304.87,152.47,329.57,122.99,339.94L234,444.17C249.24,458.49,273.3,458.49,289,444.17L464.35,278.69C481,262.88,481,236.21,464.35,219.9Z" fill="rgb(225,6,0)" fill-opacity="0" stroke="rgb(225,6,0)" stroke-width="5" stroke-linecap="round" stroke-linejoin="round" stroke-miterlimit="1" stroke-dashoffset="1602.29" stroke-dasharray="1602.29"/><path id="eW4lnNC3Oj27" d="M90.58,203.61C83.441851,203.727242,76.41648,205.41019,70,208.54C49.916492,218.425743,40.061819,241.496037,46.804873,262.840975C53.547927,284.185914,74.867664,297.407937,96.985529,293.961894C119.103395,290.515851,135.390165,271.434599,135.32,249.05C136.25,224.35,115.63,203.61,90.58,203.61Z" fill="rgb(225,6,0)" fill-opacity="0" stroke="rgb(225,6,0)" stroke-width="5" stroke-linecap="round" stroke-linejoin="round" stroke-miterlimit="1" stroke-dashoffset="285.39" stroke-dasharray="285.39"/></g><mask id="eW4lnNC3Oj28" mask-type="luminance"><g id="eW4lnNC3Oj29" transform="matrix(1 0 0 1 0 0.000001)"><rect id="eW4lnNC3Oj210" width="521.750001" height="495.89" rx="0" ry="0" transform="matrix(1 0 0 1 0.000001 0)" fill="rgb(0,0,0)" stroke="none" stroke-width="0" stroke-miterlimit="1"/><path id="eW4lnNC3Oj211" d="M464.35,219.9L288.52,54.42C273.28,40.1,249.22,40.1,233.52,54.42L123,158.65C152.223183,169.596874,174.478659,193.81716,182.92,223.86L332.22,223.86C335.884183,223.857304,339.398335,225.315127,341.984608,227.910785C344.570881,230.506442,346.015967,234.025851,346,237.69L346,260.41C346.015952,264.070683,344.573606,267.587051,341.991664,270.182129C339.409721,272.777207,335.900717,274.237376,332.24,274.24L315,274.24L315,306.35C315.018619,310.00976,313.578506,313.526159,310.998149,316.121529C308.417792,318.716899,304.909806,320.177388,301.25,320.18L263.46,320.18C259.800194,320.177388,256.292208,318.716899,253.711851,316.121529C251.131494,313.526159,249.691381,310.00976,249.71,306.35L249.71,274.24L183.41,274.24C175.06,304.87,152.47,329.57,122.99,339.94L234,444.17C249.24,458.49,273.3,458.49,289,444.17L464.35,278.69C481,262.88,481,236.21,464.35,219.9Z" fill="rgb(255,255,255)" stroke="none" stroke-width="20" stroke-linecap="round" stroke-linejoin="round" stroke-miterlimit="1" stroke-dasharray="1602.29"/><path id="eW4lnNC3Oj212" d="M90.58,203.61C83.441851,203.727242,76.41648,205.41019,70,208.54C49.916492,218.425743,40.061819,241.496037,46.804873,262.840975C53.547927,284.185914,74.867664,297.407937,96.985529,293.961894C119.103395,290.515851,135.390165,271.434599,135.32,249.05C136.25,224.35,115.63,203.61,90.58,203.61Z" fill="rgb(255,255,255)" stroke="none" stroke-width="20" stroke-linecap="round" stroke-linejoin="round" stroke-miterlimit="1" stroke-dasharray="285.39"/></g></mask></g><g id="eW4lnNC3Oj213" transform="matrix(1 0 0 1 0.000001 0)"><line id="eW4lnNC3Oj214" x1="231.11" y1="0.4" x2="521.75" y2="273.93" fill="none" stroke="rgb(116,116,116)" stroke-width="1" stroke-miterlimit="1" stroke-dashoffset="399.11" stroke-dasharray="399.11"/><line id="eW4lnNC3Oj215" x1="518.52" y1="227.33" x2="234.34" y2="495.53" fill="none" stroke="rgb(116,116,116)" stroke-width="1" stroke-miterlimit="1" stroke-dashoffset="390.76" stroke-dasharray="390.76"/><line id="eW4lnNC3Oj216" x1="290.98" y1="0.36" x2="0.34" y2="273.89" fill="none" stroke="rgb(116,116,116)" stroke-width="1" stroke-miterlimit="1" stroke-dashoffset="399.11" stroke-dasharray="399.11"/><line id="eW4lnNC3Oj217" x1="3.57" y1="227.29" x2="287.75" y2="495.49" fill="none" stroke="rgb(116,116,116)" stroke-width="1" stroke-miterlimit="1" stroke-dashoffset="390.76" stroke-dasharray="390.76"/><path id="eW4lnNC3Oj218" d="M44.61,333.2C74.180319,349.15788,109.970651,348.356666,138.797228,331.091496C167.623806,313.826325,185.222259,282.651266,185.11,249.05C187.11,197.11,143.79,153.47,91.11,153.47C75.6,153.47,61.16,157.63,47.74,163.86" transform="matrix(1.015624 0 0 1.00872 -1.921594 -1.698101)" fill="none" stroke="rgb(116,116,116)" stroke-width="1" stroke-miterlimit="1" stroke-dashoffset="391.57" stroke-dasharray="391.57"/><line id="eW4lnNC3Oj219" x1="160.14" y1="223.85" x2="367.38" y2="223.85" fill="none" stroke="rgb(116,116,116)" stroke-width="1" stroke-miterlimit="1" stroke-dashoffset="207.24" stroke-dasharray="207.24"/><line id="eW4lnNC3Oj220" x1="160.14" y1="274.21" x2="367.38" y2="274.21" fill="none" stroke="rgb(116,116,116)" stroke-width="1" stroke-miterlimit="1" stroke-dashoffset="207.24" stroke-dasharray="207.24"/><line id="eW4lnNC3Oj221" x1="234.34" y1="320.08" x2="332.42" y2="320.08" fill="none" stroke="rgb(116,116,116)" stroke-width="1" stroke-miterlimit="1" stroke-dashoffset="98.08" stroke-dasharray="98.08"/><line id="eW4lnNC3Oj222" x1="315.04" y1="255.57" x2="315.04" y2="334.41" fill="none" stroke="rgb(116,116,116)" stroke-width="1" stroke-miterlimit="1" stroke-dashoffset="78.84" stroke-dasharray="78.84"/><line id="eW4lnNC3Oj223" x1="345.92" y1="203.61" x2="345.92" y2="293.09" fill="none" stroke="rgb(116,116,116)" stroke-width="1" stroke-miterlimit="1" stroke-dashoffset="89.48" stroke-dasharray="89.48"/><line id="eW4lnNC3Oj224" x1="249.74" y1="255.57" x2="249.74" y2="334.41" fill="none" stroke="rgb(116,116,116)" stroke-width="1" stroke-miterlimit="1" stroke-dashoffset="78.84" stroke-dasharray="78.84"/><path id="eW4lnNC3Oj225" d="M90.58,203.61C83.441851,203.727242,76.41648,205.41019,70,208.54C49.916492,218.425743,40.061819,241.496037,46.804873,262.840975C53.547927,284.185914,74.867664,297.407937,96.985529,293.961894C119.103395,290.515851,135.390165,271.434599,135.32,249.05C136.25,224.35,115.63,203.61,90.58,203.61Z" fill="none" stroke="rgb(116,116,116)" stroke-width="1" stroke-miterlimit="1" stroke-dashoffset="285.39" stroke-dasharray="285.39"/><path id="eW4lnNC3Oj226" d="M289.89,113.38C301.582493,101.688741,305.080802,84.105186,298.753608,68.828847C292.426413,53.552509,277.519809,43.59195,260.985,43.59195C244.450191,43.59195,229.543587,53.552509,223.216392,68.828847C216.889198,84.105186,220.387507,101.688741,232.08,113.38" fill="none" stroke="rgb(116,116,116)" stroke-width="1" stroke-miterlimit="1" stroke-dashoffset="192.65" stroke-dasharray="192.65"/><path id="eW4lnNC3Oj227" d="M232.08,385.13C220.387507,396.821259,216.889198,414.404814,223.216392,429.681153C229.543587,444.957491,244.450191,454.91805,260.985,454.91805C277.519809,454.91805,292.426413,444.957491,298.753608,429.681153C305.080802,414.404814,301.582493,396.821259,289.89,385.13" fill="none" stroke="rgb(116,116,116)" stroke-width="1" stroke-miterlimit="1" stroke-dashoffset="192.65" stroke-dasharray="192.65"/><path id="eW4lnNC3Oj228" d="M407.07,277.9C418.761259,289.592493,436.344814,293.090802,451.621153,286.763608C466.897491,280.436413,476.85805,265.529809,476.85805,248.995C476.85805,232.460191,466.897491,217.553587,451.621153,211.226392C436.344814,204.899198,418.761259,208.397507,407.07,220.09" fill="none" stroke="rgb(116,116,116)" stroke-width="1" stroke-miterlimit="1" stroke-dashoffset="192.65" stroke-dasharray="192.65"/></g></g></g></svg>