<svg xmlns="http://www.w3.org/2000/svg" viewBox="0 0 387.21 376.69"><defs><style>.cls-1{fill:#d33c43;}.cls-2{fill:#fff;}.cls-3,.cls-4{fill:#414143;}.cls-4{stroke:#fff;stroke-miterlimit:10;}</style></defs><g id="Ebene_2" data-name="Ebene 2"><g id="Ebene_1-2" data-name="Ebene 1"><polygon class="cls-1" points="0.57 332.87 0.57 13.87 195.57 13.87 195.57 72.87 59.57 72.87 59.57 133.87 146.57 133.87 146.57 192.87 59.57 192.87 59.57 332.87 0.57 332.87"/><path class="cls-2" d="M195.07,14.37v58h-136v62h87v58h-87v140h-58v-318h194m1-1H.07v320h60v-140h87v-60h-87v-60h136v-60Z"/><polygon class="cls-3" points="2.46 12.88 29.62 1.37 215.78 1.37 195.99 12.88 2.46 12.88"/><path class="cls-2" d="M213.93,1.87,195.85,12.38H4.92L29.72,1.87H213.93m3.71-1H29.52L0,13.38H196.12L217.64.87Z"/><polygon class="cls-4" points="60.29 133.29 89.79 120.79 168.57 120.87 147.57 132.87 60.29 133.29"/><polygon class="cls-4" points="60.26 133.37 89.78 120.86 89.78 73.42 60.04 73.42 60.26 133.37"/><polygon class="cls-4" points="147.07 193.37 147.57 132.87 168.57 120.87 168.57 176.87 147.07 193.37"/><polygon class="cls-4" points="59.94 333.24 89.57 320.91 89.57 193.37 59.57 193.37 59.94 333.24"/><polygon class="cls-4" points="196.12 73.42 196.12 13.38 217.64 0.87 217.64 57.91 196.12 73.42"/><polygon class="cls-1" points="168.35 375.57 168.35 56.57 363.35 56.57 363.35 115.57 227.35 115.57 227.35 176.57 314.35 176.57 314.35 235.57 227.35 235.57 227.35 375.57 168.35 375.57"/><path class="cls-2" d="M362.85,57.07v58h-136v62h87v58h-87v140h-58v-318h194m1-1h-196v320h60v-140h87v-60h-87v-60h136v-60Z"/><polygon class="cls-4" points="167.85 56.07 197.35 43.57 385.35 43.57 363.85 56.07 167.85 56.07"/><polygon class="cls-4" points="228.07 175.98 257.57 163.48 336.35 163.57 315.35 175.57 228.07 175.98"/><polygon class="cls-4" points="228.07 175.98 257.57 163.48 257.57 116.07 227.85 116.07 228.07 175.98"/><polygon class="cls-4" points="314.85 236.07 315.35 175.57 336.35 163.57 336.35 219.57 314.85 236.07"/><polygon class="cls-4" points="227.72 375.94 257.22 363.51 257.57 236.87 227.35 236.37 227.72 375.94"/><polygon class="cls-4" points="363.85 116.07 363.85 56.07 385.35 43.57 385.35 100.57 363.85 116.07"/><path class="cls-1" d="M225.31,177.68a1.5,1.5,0,0,0,0-3,1.5,1.5,0,0,0,0,3Z"/><path class="cls-1" d="M225.35,177.7a1.5,1.5,0,0,0,0-3,1.5,1.5,0,0,0,0,3Z"/><path class="cls-1" d="M225.37,177.73a1.5,1.5,0,0,0,0-3,1.5,1.5,0,0,0,0,3Z"/><path class="cls-1" d="M225.38,177.72a1.5,1.5,0,0,0,0-3,1.5,1.5,0,0,0,0,3Z"/><path class="cls-1" d="M225.4,177.72a1.5,1.5,0,0,0,0-3,1.5,1.5,0,0,0,0,3Z"/><path class="cls-1" d="M225.41,177.72a1.5,1.5,0,0,0,0-3,1.5,1.5,0,0,0,0,3Z"/><path class="cls-1" d="M57.61,135.05a1.5,1.5,0,0,0,0-3,1.5,1.5,0,0,0,0,3Z"/><path class="cls-1" d="M57.61,135a1.5,1.5,0,0,0,0-3,1.5,1.5,0,0,0,0,3Z"/><path class="cls-1" d="M57.62,135a1.5,1.5,0,0,0,0-3,1.5,1.5,0,0,0,0,3Z"/><path class="cls-1" d="M166.32,57.84a1.5,1.5,0,0,0,0-3,1.5,1.5,0,0,0,0,3Z"/><path class="cls-1" d="M166.33,58a1.5,1.5,0,0,0,0-3,1.5,1.5,0,0,0,0,3Z"/><path class="cls-1" d="M166.33,58a1.5,1.5,0,0,0,0-3,1.5,1.5,0,0,0,0,3Z"/><path class="cls-1" d="M166.33,58a1.5,1.5,0,0,0,0-3,1.5,1.5,0,0,0,0,3Z"/><path class="cls-1" d="M166.31,57.78a1.5,1.5,0,0,0,0-3,1.5,1.5,0,0,0,0,3Z"/><path class="cls-1" d="M166.29,57.7a1.5,1.5,0,0,0,0-3,1.5,1.5,0,0,0,0,3Z"/><path class="cls-1" d="M166.29,57.69a1.5,1.5,0,0,0,0-3,1.5,1.5,0,0,0,0,3Z"/><path class="cls-1" d="M166.29,57.64a1.5,1.5,0,0,0,0-3,1.5,1.5,0,0,0,0,3Z"/><path class="cls-1" d="M166.29,57.62a1.5,1.5,0,0,0,0-3,1.5,1.5,0,0,0,0,3Z"/><path class="cls-1" d="M166.29,57.61a1.5,1.5,0,0,0,0-3,1.5,1.5,0,0,0,0,3Z"/><path class="cls-1" d="M166.29,57.58a1.5,1.5,0,0,0,0-3,1.5,1.5,0,0,0,0,3Z"/><path class="cls-1" d="M166.29,57.53a1.5,1.5,0,0,0,0-3,1.5,1.5,0,0,0,0,3Z"/><path class="cls-1" d="M166.29,57.51a1.5,1.5,0,0,0,0-3,1.5,1.5,0,0,0,0,3Z"/><path class="cls-1" d="M166.28,57.42a1.5,1.5,0,0,0,0-3,1.5,1.5,0,0,0,0,3Z"/><path class="cls-1" d="M166.28,57.41a1.5,1.5,0,0,0,0-3,1.5,1.5,0,0,0,0,3Z"/><path class="cls-1" d="M166.27,57.37a1.5,1.5,0,0,0,0-3,1.5,1.5,0,0,0,0,3Z"/><path class="cls-1" d="M167.77,55.84v-.09a1.08,1.08,0,0,0-.13-.58,1.14,1.14,0,0,0-.31-.48,1.17,1.17,0,0,0-.48-.31,1.15,1.15,0,0,0-.58-.13l-.4.06a1.57,1.57,0,0,0-.66.38L165,55a1.48,1.48,0,0,0-.21.76v.09a1.17,1.17,0,0,0,.13.58,1.14,1.14,0,0,0,.31.48,1.24,1.24,0,0,0,.48.31,1.27,1.27,0,0,0,.58.13l.4-.06a1.57,1.57,0,0,0,.66-.38l.24-.31a1.5,1.5,0,0,0,.2-.75Z"/><path class="cls-1" d="M164.92,55.86l0,0-.15-.36a.3.3,0,0,1,0,.1l0-.4v.1l0-.4h0a1.11,1.11,0,0,0,0,.6,1,1,0,0,0,.17.56,1.31,1.31,0,0,0,.39.42,1.08,1.08,0,0,0,.51.26l.4.06a1.48,1.48,0,0,0,.76-.21l.3-.23a1.59,1.59,0,0,0,.39-.66c0-.15,0-.29.05-.43v-.07a3,3,0,0,0-.06-.43.19.19,0,0,0,0-.07c-.05-.13-.1-.26-.16-.38l0,0a1.54,1.54,0,0,0-.89-.69,1,1,0,0,0-.6,0,1.12,1.12,0,0,0-.56.18l-.3.23a1.49,1.49,0,0,0-.39.66l-.05.4a1.54,1.54,0,0,0,.2.76Z"/><path class="cls-1" d="M164.82,55.39a.38.38,0,0,1,0,.15l.05-.39c0,.07,0,.15-.05.23s-.06.41-.08.61,0,.33,0,.5a1.72,1.72,0,0,0,.44,1.06,1.24,1.24,0,0,0,.48.31,1.27,1.27,0,0,0,.58.13l.4-.06a1.57,1.57,0,0,0,.66-.38l.24-.31a1.5,1.5,0,0,0,.2-.75,4.42,4.42,0,0,1,0-.63l-.06.4c0-.09,0-.17.05-.25a2.76,2.76,0,0,0,.07-.49.56.56,0,0,0,0-.13,1.15,1.15,0,0,0-.13-.58,1.08,1.08,0,0,0-.31-.48,1.14,1.14,0,0,0-.48-.31,1.06,1.06,0,0,0-.58-.13l-.4,0a1.49,1.49,0,0,0-.66.39l-.24.3a1.57,1.57,0,0,0-.2.76Z"/><path class="cls-1" d="M167.8,56.3s0-.09,0-.13l.05.4a3.53,3.53,0,0,1,0-.65,5.86,5.86,0,0,0-.09-1A1.54,1.54,0,0,0,167,54a1.09,1.09,0,0,0-.55-.18,1.11,1.11,0,0,0-.6,0l-.36.16a1.61,1.61,0,0,0-.54.53l-.15.36a1.55,1.55,0,0,0,0,.8v0l0-.4a4,4,0,0,1,0,.69,5.36,5.36,0,0,0,.1,1.06,1.15,1.15,0,0,0,.27.51,1,1,0,0,0,.42.38,1.12,1.12,0,0,0,.56.18,1,1,0,0,0,.59,0l.36-.15a1.45,1.45,0,0,0,.54-.53l.15-.36a1.55,1.55,0,0,0,0-.8Z"/></g></g></svg>