<svg xmlns="http://www.w3.org/2000/svg" xmlns:xlink="http://www.w3.org/1999/xlink" width="500" height="500" viewBox="0 0 500 500">
  <defs>
    <clipPath id="clip-Vierge_Noire_1">
      <rect width="500" height="500"/>
    </clipPath>
  </defs>
  <g id="Vierge_Noire_1" data-name="Vierge Noire 1" clip-path="url(#clip-Vierge_Noire_1)">
    <rect width="500" height="500" fill="#fff"/>
    <path id="Pfad_1" data-name="Pfad 1" d="M132,351,0,175.5Z" transform="translate(125 65)" fill="#080432"/>
    <g id="Gruppe_5" data-name="Gruppe 5" transform="matrix(-0.588, -0.809, 0.809, -0.588, 251.427, 577.88)">
      <line id="Linie_1" data-name="Linie 1" x2="7" transform="translate(247.5 211.5)" fill="none" stroke="#fff" stroke-width="1"/>
    </g>
    <g id="Gruppe_20" data-name="Gruppe 20" transform="translate(-33 -48)">
      <path id="Differenzmenge_1" data-name="Differenzmenge 1" d="M-271.081-167.195h0c-.1-8.965-5.886-16.271-12.9-16.285,7.115-.014,12.9-7.424,12.9-16.52,0,9.1,5.787,16.507,12.9,16.52C-265.2-183.466-270.982-176.162-271.081-167.195Z" transform="translate(521.163 391.343)" fill="#080432"/>
      <path id="Differenzmenge_2" data-name="Differenzmenge 2" d="M-276.669-181.4h0c-.056-5.083-3.337-9.224-7.314-9.232,4.033-.008,7.315-4.209,7.315-9.366,0,5.156,3.28,9.358,7.314,9.366C-273.333-190.626-276.613-186.486-276.669-181.4Z" transform="translate(504.163 374.55)" fill="#080432"/>
      <path id="Differenzmenge_3" data-name="Differenzmenge 3" d="M-276.669-181.4h0c-.056-5.083-3.337-9.224-7.314-9.232,4.033-.008,7.315-4.209,7.315-9.366,0,5.156,3.28,9.358,7.314,9.366C-273.333-190.626-276.613-186.486-276.669-181.4Z" transform="translate(546.163 433.55)" fill="#080432"/>
      <path id="Differenzmenge_4" data-name="Differenzmenge 4" d="M-276.669-181.4h0c-.056-5.083-3.337-9.224-7.314-9.232,4.033-.008,7.315-4.209,7.315-9.366,0,5.156,3.28,9.358,7.314,9.366C-273.333-190.626-276.613-186.486-276.669-181.4Z" transform="translate(519.163 431.55)" fill="#080432"/>
      <path id="Differenzmenge_5" data-name="Differenzmenge 5" d="M-276.669-181.4h0c-.056-5.083-3.337-9.224-7.314-9.232,4.033-.008,7.315-4.209,7.315-9.366,0,5.156,3.28,9.358,7.314,9.366C-273.333-190.626-276.613-186.486-276.669-181.4Z" transform="translate(577.163 353.55)" fill="#080432"/>
      <path id="Differenzmenge_6" data-name="Differenzmenge 6" d="M-276.669-181.4h0c-.056-5.083-3.337-9.224-7.314-9.232,4.033-.008,7.315-4.209,7.315-9.366,0,5.156,3.28,9.358,7.314,9.366C-273.333-190.626-276.613-186.486-276.669-181.4Z" transform="translate(565.163 383.55)" fill="#080432"/>
      <path id="Differenzmenge_7" data-name="Differenzmenge 7" d="M-276.669-181.4h0c-.056-5.083-3.337-9.224-7.314-9.232,4.033-.008,7.315-4.209,7.315-9.366,0,5.156,3.28,9.358,7.314,9.366C-273.333-190.626-276.613-186.486-276.669-181.4Z" transform="translate(549.163 398.55)" fill="#080432"/>
      <path id="Differenzmenge_8" data-name="Differenzmenge 8" d="M-276.669-181.4h0c-.056-5.083-3.337-9.224-7.314-9.232,4.033-.008,7.315-4.209,7.315-9.366,0,5.156,3.28,9.358,7.314,9.366C-273.333-190.626-276.613-186.486-276.669-181.4Z" transform="translate(521.163 474.55)" fill="#080432"/>
      <path id="Differenzmenge_9" data-name="Differenzmenge 9" d="M-276.669-181.4h0c-.056-5.083-3.337-9.224-7.314-9.232,4.033-.008,7.315-4.209,7.315-9.366,0,5.156,3.28,9.358,7.314,9.366C-273.333-190.626-276.613-186.486-276.669-181.4Z" transform="translate(530.163 479.55)" fill="#080432"/>
      <path id="Differenzmenge_10" data-name="Differenzmenge 10" d="M-276.669-181.4h0c-.056-5.083-3.337-9.224-7.314-9.232,4.033-.008,7.315-4.209,7.315-9.366,0,5.156,3.28,9.358,7.314,9.366C-273.333-190.626-276.613-186.486-276.669-181.4Z" transform="translate(499.163 442.55)" fill="#080432"/>
      <path id="Differenzmenge_11" data-name="Differenzmenge 11" d="M-276.669-181.4h0c-.056-5.083-3.337-9.224-7.314-9.232,4.033-.008,7.315-4.209,7.315-9.366,0,5.156,3.28,9.358,7.314,9.366C-273.333-190.626-276.613-186.486-276.669-181.4Z" transform="translate(554.163 452.55)" fill="#080432"/>
      <path id="Differenzmenge_12" data-name="Differenzmenge 12" d="M-271.081-167.195h0c-.1-8.965-5.886-16.271-12.9-16.285,7.115-.014,12.9-7.424,12.9-16.52,0,9.1,5.787,16.507,12.9,16.52C-265.2-183.466-270.982-176.162-271.081-167.195Z" transform="translate(498.163 481.343)" fill="#080432"/>
      <path id="Differenzmenge_13" data-name="Differenzmenge 13" d="M-271.081-167.195h0c-.1-8.965-5.886-16.271-12.9-16.285,7.115-.014,12.9-7.424,12.9-16.52,0,9.1,5.787,16.507,12.9,16.52C-265.2-183.466-270.982-176.162-271.081-167.195Z" transform="translate(477.163 465.343)" fill="#080432"/>
      <g id="Gruppe_1" data-name="Gruppe 1" transform="translate(171.625 -74.324) rotate(40)">
        <line id="Linie_1-2" data-name="Linie 1" x2="7" transform="translate(215.5 162.5)" fill="none" stroke="#080432" stroke-width="1"/>
        <line id="Linie_2" data-name="Linie 2" x2="7" transform="translate(224.909 162.623)" fill="none" stroke="#080432" stroke-width="1"/>
      </g>
      <g id="Gruppe_4" data-name="Gruppe 4" transform="matrix(0.719, -0.695, 0.695, 0.719, -47.475, 222.719)">
        <line id="Linie_1-3" data-name="Linie 1" x2="7" transform="translate(247.5 211.5)" fill="none" stroke="#080432" stroke-width="1"/>
      </g>
      <g id="Gruppe_10" data-name="Gruppe 10" transform="translate(5 96)">
        <g id="Gruppe_14" data-name="Gruppe 14" transform="matrix(0.438, -0.899, 0.899, 0.438, 5.228, 315.167)">
          <g id="Gruppe_8" data-name="Gruppe 8" transform="translate(90.5 381.5) rotate(-90)">
            <line id="Linie_1-4" data-name="Linie 1" x2="7" transform="translate(214.5 162.5)" fill="none" stroke="#080432" stroke-width="1"/>
            <line id="Linie_2-2" data-name="Linie 2" x2="7" transform="translate(223.5 162.5)" fill="none" stroke="#080432" stroke-width="1"/>
          </g>
          <g id="Gruppe_9" data-name="Gruppe 9" transform="translate(41.5 396.5) rotate(-90)">
            <line id="Linie_1-5" data-name="Linie 1" x2="7" transform="translate(247.5 211.5)" fill="none" stroke="#080432" stroke-width="1"/>
          </g>
        </g>
      </g>
      <g id="Gruppe_11" data-name="Gruppe 11" transform="translate(472.036 64.408) rotate(109)">
        <line id="Linie_1-6" data-name="Linie 1" x2="7" transform="translate(215.5 162.5)" fill="none" stroke="#080432" stroke-width="1"/>
        <line id="Linie_2-3" data-name="Linie 2" x2="7" transform="translate(224.909 162.623)" fill="none" stroke="#080432" stroke-width="1"/>
      </g>
      <g id="Gruppe_12" data-name="Gruppe 12" transform="translate(443.547 8.11) rotate(93)">
        <line id="Linie_1-7" data-name="Linie 1" x2="7" transform="translate(215.5 162.5)" fill="none" stroke="#080432" stroke-width="1"/>
        <line id="Linie_2-4" data-name="Linie 2" x2="7" transform="translate(224.909 162.623)" fill="none" stroke="#080432" stroke-width="1"/>
      </g>
      <g id="Gruppe_13" data-name="Gruppe 13" transform="translate(514.363 12.599) rotate(107)">
        <line id="Linie_1-8" data-name="Linie 1" x2="7" transform="translate(215.5 162.5)" fill="none" stroke="#080432" stroke-width="1"/>
        <line id="Linie_2-5" data-name="Linie 2" x2="7" transform="translate(224.909 162.623)" fill="none" stroke="#080432" stroke-width="1"/>
      </g>
      <g id="Gruppe_15" data-name="Gruppe 15" transform="translate(-35.812 180.077) rotate(-22)">
        <line id="Linie_1-9" data-name="Linie 1" x2="7" transform="translate(215.5 162.5)" fill="none" stroke="#080432" stroke-width="1"/>
        <line id="Linie_2-6" data-name="Linie 2" x2="7" transform="translate(224.909 162.623)" fill="none" stroke="#080432" stroke-width="1"/>
      </g>
      <g id="Gruppe_16" data-name="Gruppe 16" transform="translate(29.444 456.837) rotate(-69)">
        <g id="Gruppe_14-2" data-name="Gruppe 14" transform="matrix(0.438, -0.899, 0.899, 0.438, 5.228, 315.167)">
          <g id="Gruppe_8-2" data-name="Gruppe 8" transform="translate(90.5 381.5) rotate(-90)">
            <line id="Linie_1-10" data-name="Linie 1" x2="7" transform="translate(214.5 162.5)" fill="none" stroke="#080432" stroke-width="1"/>
            <line id="Linie_2-7" data-name="Linie 2" x2="7" transform="translate(223.5 162.5)" fill="none" stroke="#080432" stroke-width="1"/>
          </g>
          <g id="Gruppe_9-2" data-name="Gruppe 9" transform="translate(41.5 396.5) rotate(-90)">
            <line id="Linie_1-11" data-name="Linie 1" x2="7" transform="translate(247.5 211.5)" fill="none" stroke="#080432" stroke-width="1"/>
          </g>
        </g>
      </g>
      <g id="Gruppe_17" data-name="Gruppe 17" transform="matrix(0.839, -0.545, 0.545, 0.839, -42.652, 278.502)">
        <line id="Linie_1-12" data-name="Linie 1" x2="7" transform="translate(215.5 162.5)" fill="none" stroke="#080432" stroke-width="1"/>
        <line id="Linie_2-8" data-name="Linie 2" x2="7" transform="translate(224.909 162.623)" fill="none" stroke="#080432" stroke-width="1"/>
      </g>
      <g id="Gruppe_18" data-name="Gruppe 18" transform="translate(48.695 516.918) rotate(-88)">
        <g id="Gruppe_14-3" data-name="Gruppe 14" transform="matrix(0.438, -0.899, 0.899, 0.438, 5.228, 315.167)">
          <g id="Gruppe_8-3" data-name="Gruppe 8" transform="translate(90.5 381.5) rotate(-90)">
            <line id="Linie_1-13" data-name="Linie 1" x2="7" transform="translate(214.5 162.5)" fill="none" stroke="#080432" stroke-width="1"/>
            <line id="Linie_2-9" data-name="Linie 2" x2="7" transform="translate(223.5 162.5)" fill="none" stroke="#080432" stroke-width="1"/>
          </g>
          <g id="Gruppe_9-3" data-name="Gruppe 9" transform="translate(41.5 396.5) rotate(-90)">
            <line id="Linie_1-14" data-name="Linie 1" x2="7" transform="translate(247.5 211.5)" fill="none" stroke="#080432" stroke-width="1"/>
          </g>
        </g>
      </g>
    </g>
    <path id="Ausschluss_2" data-name="Ausschluss 2" d="M-221.4,91.274-398.05-143.6-221.4-378.465l8.948,11.9L-379.895-143.941-212.189,79.032-221.4,91.273h0Zm18.155-.345v0h0l-8.947-11.9L-44.743-143.6-212.448-366.568l9.207-12.242L-26.586-143.941-203.241,90.929Z" transform="translate(437.051 384.494)" fill="#080432"/>
    <text id="Vierge_Noire" data-name="Vierge Noire" transform="translate(123 302)" fill="#080432" font-size="40" font-family="Vivaldii, Vivaldi"><tspan x="0" y="0">Vierge Noire</tspan></text>
  </g>
</svg>
